<?xml version="1.0" encoding="UTF-8"?>
<!DOCTYPE svg PUBLIC "-//W3C//DTD SVG 1.1//EN" "http://www.w3.org/Graphics/SVG/1.1/DTD/svg11.dtd">
<!-- Creator: CorelDRAW 2018 (64 Bit Versão de avaliação) -->
<svg xmlns="http://www.w3.org/2000/svg" xml:space="preserve" width="134.638mm" height="84.6032mm" version="1.1" style="shape-rendering:geometricPrecision; text-rendering:geometricPrecision; image-rendering:optimizeQuality; fill-rule:evenodd; clip-rule:evenodd"
viewBox="0 0 13463.84 8460.31"
 xmlns:xlink="http://www.w3.org/1999/xlink">
 <defs>
  <style type="text/css">
   <![CDATA[
    .fil1 {fill:#0086C2}
    .fil0 {fill:#034575}
    .fil2 {fill:#0086C2;fill-rule:nonzero}
    .fil3 {fill:#034575;fill-rule:nonzero}
   ]]>
  </style>
 </defs>
 <g id="Camada_x0020_1">
  <metadata id="CorelCorpID_0Corel-Layer"/>
  <g id="_2302905875824">
   <path class="fil0" d="M1277.49 1110.49l454.76 -178.62 0 819.02 -454.76 178.61 0 -819.01zm-878.85 926.07l433.26 -164.98 0 727.6 -433.26 170.17 0 -732.79zm433.26 946.27l0 700.76 -433.26 170.13 0 -700.72 433.26 -170.17zm-812.88 1177.74l1258.47 0 0 -601.05 454.76 -178.61 0 779.66 1680.43 0 -1343.84 -1335.74c-96.02,-95.44 -96.5,-252.07 -1.05,-348.09l443.79 -446.49c95.44,-96.02 252.07,-96.49 348.09,-1.05l486.49 483.55 0 -1844.69 -1184.01 -668.06 -1521.36 886.35 0 563.32 -621.77 309.8 0 2401.1zm1713.23 -1960.67l0 778.65 -454.76 178.61 0 -778.65 454.76 -178.61z"/>
   <path class="fil1" d="M6013.91 1456.44c53.8,-54.01 53.61,-142.21 -0.39,-196l-341.59 -340.23c-54,-53.8 -142.22,-53.61 -196.01,0.39l-1921.12 1928.84c-81.13,81.47 -103.94,74.8 -181.34,-2.92l-586.33 -588.68c-48.7,-48.9 -128.57,-49.04 -177.45,-0.35l-309.26 308.02c-48.9,48.7 -49.07,128.56 -0.36,177.45l1077.46 1081.77c134.68,135.23 153.97,124.09 288.4,-10.87l2347.99 -2357.42z"/>
   <polygon class="fil2" points="-0,6803.22 1316.28,6803.22 1316.28,6412.8 445.67,6412.8 445.67,4732.77 -0,4732.77 "/>
   <path class="fil2" d="M3140.94 6803.22l455.74 0 -809.11 -2070.46 -488.95 0 -806.4 2070.46 445.01 0 148.4 -393.67 909.61 0 145.7 393.67zm-918.17 -757.48l317.66 -842.69 317.67 842.69 -635.33 0z"/>
   <path class="fil2" d="M4590.55 6861.91c573.03,0 912.81,-340.9 912.81,-956.92l0 -1172.23 -460.73 0 0 1154.29c0,397.72 -164.13,562.19 -449.2,562.19 -282.19,0 -449.21,-164.47 -449.21,-562.19l0 -1154.29 -466.48 0 0 1172.23c0,616.02 339.78,956.92 912.81,956.92z"/>
   <path class="fil2" d="M5891.25 6803.22l867.54 0c624.74,0 1053.06,-408.18 1053.06,-1035.23 0,-627.05 -428.32,-1035.23 -1053.06,-1035.23l-867.54 0 0 2070.46zm441.95 -393.39l0 -1283.68 403.77 0c379.2,0 627.46,245.49 627.46,641.84 0,396.35 -248.26,641.84 -627.46,641.84l-403.77 0z"/>
   <path class="fil3" d="M9253.59 6868.71c653.66,0 1137.96,-482.54 1137.96,-1100.72 0,-618.18 -484.3,-1100.72 -1137.96,-1100.72 -656.62,0 -1147.96,485.5 -1147.96,1100.72 0,615.22 491.34,1100.72 1147.96,1100.72zm0 -388.17c-371.39,0 -690.69,-319.16 -690.69,-712.55 0,-393.39 319.3,-702.55 690.69,-702.55 371.4,0 690.69,309.16 690.69,702.55 0,393.39 -319.29,712.55 -690.69,712.55z"/>
   <polygon class="fil3" points="11992.8,6823.22 12546.23,6823.22 11604.26,5742.99 12539.15,4732.77 11980.65,4732.77 11162.14,5639.97 11162.14,4732.77 10696.27,4732.77 10696.27,6803.22 11162.14,6803.22 11162.14,5869.7 "/>
   <path class="fil3" d="M13037.1 6247.49l361.1 0 37.77 -1515.59 -426.64 0 27.77 1515.59zm185.55 642c311.51,0 334.91,-443.63 -10,-443.63 -347.75,0 -346.12,443.63 10,443.63z"/>
   <path class="fil3" d="M2.88 8213.24l0 -735.02 119.52 0 0 632.42 309.28 0 0 102.6 -428.8 0zm758.67 -564.13c69.7,0 122.42,15.44 158.12,46.49 35.71,31.06 53.56,79.44 53.56,144.98l0 372.66 -83.15 0 -22.44 -78.75 -4.08 0c-15.65,20.24 -31.62,36.71 -48.29,49.75 -16.66,13.22 -35.71,22.99 -57.47,29.51 -21.76,6.52 -48.29,9.78 -79.58,9.78 -32.81,0 -62.22,-6.17 -88.07,-18.35 -25.84,-12.19 -46.41,-30.72 -61.21,-55.77 -14.96,-25.04 -22.44,-56.79 -22.44,-95.05 0,-57.13 21.08,-100.02 63.42,-128.68 42.33,-28.82 106.44,-44.61 192.13,-47.69l95.56 -3.44 0 -28.82c0,-38.26 -8.84,-65.54 -26.69,-81.67 -17.69,-16.3 -42.68,-24.53 -74.99,-24.53 -27.54,0 -54.24,4.11 -80.08,12.18 -26.02,8.06 -51.18,17.84 -75.67,29.68l-37.91 -83.56c26.86,-14.41 57.47,-26.08 91.81,-35.17 34.52,-9.09 70.23,-13.55 107.47,-13.55zm95.55 299.91l-71.24 2.4c-58.32,2.06 -99.47,12.01 -122.94,30.02 -23.63,17.85 -35.36,42.55 -35.36,73.78 0,27.28 7.99,47.18 24.31,59.71 16.33,12.35 37.75,18.7 64.28,18.7 40.46,0 74.13,-11.67 100.82,-34.83 26.87,-22.99 40.13,-57.13 40.13,-101.91l0 -47.87zm760.54 -289.62l0 553.84 -92.15 0 -15.82 -74.63 -6.46 0c-11.73,19.04 -26.52,34.82 -44.37,47.52 -18.02,12.53 -37.92,21.96 -59.85,28.14 -21.93,6.18 -44.89,9.26 -69.2,9.26 -41.5,0 -77.02,-7.03 -106.28,-21.27 -29.41,-14.24 -52.02,-36.2 -67.49,-65.88 -15.64,-29.69 -23.47,-67.95 -23.47,-115.13l0 -361.85 117.49 0 0 339.54c0,43.07 8.84,75.15 26.18,96.6 17.52,21.28 44.55,31.91 81.45,31.91 35.54,0 63.77,-7.2 84.68,-21.96 20.91,-14.58 35.87,-36.37 44.54,-65.02 8.84,-28.66 13.26,-63.83 13.26,-105.52l0 -275.55 117.49 0zm352.82 564.13c-65.8,0 -118.51,-24.02 -158.12,-72.23 -39.79,-48.21 -59.51,-119.41 -59.51,-213.44 0,-95.05 20.05,-166.94 60.53,-215.66 40.29,-48.73 93.51,-73.09 159.65,-73.09 27.88,0 52.2,3.77 73.11,11.32 20.91,7.55 38.94,17.67 54.07,30.37 15.13,12.7 28.06,26.94 38.6,42.72l5.44 0c-1.53,-10.47 -3.4,-25.56 -5.61,-45.47 -2.22,-19.73 -3.23,-38.09 -3.23,-55.07l0 -202.11 117.49 0 0 782.37 -91.65 0 -20.91 -75.66 -4.93 0c-10.04,16.12 -22.61,30.54 -37.58,43.4 -15.13,13.04 -33.16,23.34 -53.9,31.06 -20.74,7.72 -45.23,11.49 -73.45,11.49zm32.81 -96.08c50.17,0 85.53,-14.41 106.1,-43.4 20.57,-28.83 31.28,-72.41 31.97,-130.23l0 -15.44c0,-61.94 -10.03,-109.46 -29.93,-142.58 -19.89,-33.11 -56.28,-49.75 -108.99,-49.75 -42.34,0 -74.3,17.15 -96.4,51.3 -22.1,34.14 -33.15,81.49 -33.15,142.4 0,60.91 11.05,107.41 33.15,139.66 22.1,32.09 54.41,48.04 97.25,48.04zm905.07 -192.16c0,45.98 -5.94,86.99 -17.84,122.68 -11.91,35.68 -29.43,65.71 -52.38,90.24 -22.95,24.54 -50.5,43.24 -82.63,56.11 -32.3,12.87 -68.53,19.21 -109.16,19.21 -37.74,0 -72.43,-6.34 -104.06,-19.21 -31.62,-12.87 -58.83,-31.57 -81.95,-56.11 -23.13,-24.53 -40.98,-54.56 -53.56,-90.24 -12.59,-35.69 -18.87,-76.7 -18.87,-122.68 0,-61.08 10.53,-112.72 31.62,-155.27 21.08,-42.55 51.18,-74.98 90.45,-97.46 39.12,-22.3 85.7,-33.45 139.94,-33.45 50.84,0 95.55,11.15 134.49,33.45 38.77,22.48 69.2,54.91 91.14,97.63 21.93,42.72 32.81,94.36 32.81,155.1zm-399.9 0c0,40.32 4.93,74.81 14.62,103.29 9.86,28.65 25,50.61 45.57,65.71 20.57,15.1 47.26,22.65 79.74,22.65 32.48,0 59.17,-7.55 79.74,-22.65 20.57,-15.1 35.71,-37.06 45.23,-65.71 9.69,-28.48 14.46,-62.97 14.46,-103.29 0,-40.32 -4.77,-74.46 -14.46,-102.6 -9.52,-28.14 -24.66,-49.58 -45.23,-64.34 -20.57,-14.75 -47.44,-22.3 -80.25,-22.3 -48.46,0 -83.82,16.3 -106.1,49.07 -22.28,32.59 -33.32,79.26 -33.32,140.17zm905.06 120.1c0,36.38 -8.84,67.09 -26.35,92.14 -17.68,25.05 -43.36,43.92 -77.02,56.79 -33.67,12.87 -74.99,19.21 -123.79,19.21 -38.6,0 -71.58,-2.74 -99.47,-8.23 -27.71,-5.66 -53.73,-14.07 -78.38,-25.39l0 -102.09c26.19,12.35 55.77,23.16 88.41,32.08 32.66,9.1 63.76,13.73 92.84,13.73 38.6,0 66.32,-6.18 83.31,-18.19 16.84,-12.18 25.34,-28.31 25.34,-48.55 0,-12.01 -3.4,-22.82 -10.21,-32.26 -6.79,-9.43 -19.37,-19.39 -37.91,-29.51 -18.36,-10.12 -45.4,-22.47 -80.94,-36.72 -34.85,-14.06 -64.26,-28.13 -88.07,-42.03 -23.97,-14.07 -42,-31.06 -54.4,-50.79 -12.25,-19.9 -18.37,-45.29 -18.37,-76.35 0,-49.07 19.39,-86.3 57.98,-111.86 38.77,-25.57 89.95,-38.26 153.71,-38.26 33.83,0 65.79,3.43 95.89,10.29 30.1,6.86 59.51,16.82 88.42,29.86l-36.9 89.04c-24.82,-11.15 -49.81,-20.24 -74.98,-27.45 -25,-7.21 -50.5,-10.81 -76.34,-10.81 -30.27,0 -53.22,4.63 -69.04,14.07 -15.81,9.26 -23.63,22.48 -23.63,39.8 0,13.04 3.75,24.03 11.4,32.95 7.65,9.09 20.91,18.01 39.61,26.93 18.71,9.1 44.89,20.25 78.55,33.46 32.81,12.7 61.22,25.91 85.36,39.81 24.14,13.89 42.5,30.71 55.59,50.78 12.93,20.08 19.39,45.81 19.39,77.55z"/>
   <path class="fil3" d="M4666.73 7649.11c49.62,0 92.21,10.12 127.76,30.54 35.54,20.24 63.01,49.07 82.08,86.47 19.06,37.23 28.68,82.01 28.68,134l0 62.97 -371.78 0c1.37,53.7 15.79,95.05 43.44,124.04 27.65,29 66.46,43.41 116.6,43.41 35.55,0 67.49,-3.43 95.82,-10.29 28.34,-6.87 57.54,-16.99 87.75,-30.37l0 95.91c-27.81,13.04 -56.15,22.65 -84.99,28.65 -28.86,6.01 -63.38,9.09 -103.72,9.09 -54.62,0 -102.7,-10.63 -144.08,-31.74 -41.39,-21.27 -73.85,-52.84 -97.21,-94.88 -23.18,-42.03 -34.85,-94.19 -34.85,-156.64 0,-61.94 10.47,-114.61 31.59,-158.02 21.13,-43.41 50.83,-76.35 89.13,-99.17 38.29,-22.65 82.77,-33.97 133.78,-33.97zm0 89.04c-37.27,0 -67.32,11.84 -90.33,35.69 -22.84,23.85 -36.41,58.85 -40.53,104.83l253.63 0c-0.34,-27.45 -4.97,-51.81 -13.91,-73.09 -8.76,-21.1 -22.15,-37.74 -40.17,-49.58 -17.87,-12.01 -40.88,-17.85 -68.69,-17.85z"/>
   <path class="fil3" d="M9667.72 7935.29c0,45.98 -6.34,86.99 -19.04,122.68 -12.7,35.68 -31.4,65.71 -55.9,90.24 -24.49,24.54 -53.88,43.24 -88.16,56.11 -34.47,12.87 -73.13,19.21 -116.48,19.21 -40.29,0 -77.29,-6.34 -111.05,-19.21 -33.74,-12.87 -62.77,-31.57 -87.44,-56.11 -24.68,-24.53 -43.72,-54.56 -57.15,-90.24 -13.43,-35.69 -20.13,-76.7 -20.13,-122.68 0,-61.08 11.24,-112.72 33.74,-155.27 22.5,-42.55 54.61,-74.98 96.51,-97.46 41.74,-22.3 91.45,-33.45 149.32,-33.45 54.25,0 101.97,11.15 143.51,33.45 41.37,22.48 73.84,54.91 97.26,97.63 23.4,42.72 35.01,94.36 35.01,155.1zm-426.72 0c0,40.32 5.26,74.81 15.6,103.29 10.53,28.65 26.67,50.61 48.63,65.71 21.94,15.1 50.42,22.65 85.09,22.65 34.65,0 63.13,-7.55 85.08,-22.65 21.95,-15.1 38.1,-37.06 48.26,-65.71 10.34,-28.48 15.43,-62.97 15.43,-103.29 0,-40.32 -5.09,-74.46 -15.43,-102.6 -10.16,-28.14 -26.31,-49.58 -48.26,-64.34 -21.95,-14.75 -50.63,-22.3 -85.64,-22.3 -51.7,0 -89.43,16.3 -113.2,49.07 -23.77,32.59 -35.56,79.26 -35.56,140.17z"/>
   <path class="fil3" d="M8554.96 7588.37c2.09,-23.33 6.43,-43.75 13.22,-61.25 6.78,-17.5 15.82,-32.26 26.77,-44.1 11.13,-11.83 23.81,-20.76 38.24,-26.76 14.43,-6.01 30.09,-8.92 47.12,-8.92 14.96,0 29.21,2.91 42.95,8.58 13.91,5.66 27.3,12.18 40.33,19.73 13.04,7.55 25.74,14.07 38.25,19.73 12.34,5.66 24.34,8.58 35.81,8.58 13.22,0 24.53,-4.64 33.91,-14.07 9.39,-9.27 16.34,-23.85 21.21,-43.58l62.59 0c-4,46.15 -17.56,81.32 -40.16,105.69 -22.78,24.19 -51.12,36.37 -85.19,36.37 -14.26,0 -28.17,-2.92 -41.9,-8.75 -13.91,-5.83 -27.13,-12.53 -40,-19.73 -13.03,-7.38 -25.72,-13.9 -38.24,-19.56 -12.52,-5.66 -24.87,-8.58 -36.68,-8.58 -13.57,0 -25.04,4.63 -34.43,13.9 -9.39,9.26 -16.17,23.5 -20.51,42.72l-63.29 0z"/>
   <path class="fil3" d="M8761.51 7649.11c71.28,0 125.18,15.44 161.69,46.49 36.51,31.06 54.76,79.44 54.76,144.98l0 372.66 -85.02 0 -22.94 -78.75 -4.18 0c-16,20.24 -32.33,36.71 -49.38,49.75 -17.03,13.22 -36.51,22.99 -58.76,29.51 -22.25,6.52 -49.38,9.78 -81.37,9.78 -33.55,0 -63.63,-6.17 -90.05,-18.35 -26.43,-12.19 -47.47,-30.72 -62.6,-55.77 -15.3,-25.04 -22.94,-56.79 -22.94,-95.05 0,-57.13 21.55,-100.02 64.84,-128.68 43.29,-28.82 108.85,-44.61 196.47,-47.69l97.7 -3.44 0 -28.82c0,-38.26 -9.04,-65.54 -27.29,-81.67 -18.08,-16.3 -43.64,-24.53 -76.67,-24.53 -28.17,0 -55.46,4.11 -81.89,12.18 -26.6,8.06 -52.33,17.84 -77.37,29.68l-38.77 -83.56c27.47,-14.41 58.76,-26.08 93.89,-35.17 35.29,-9.09 71.8,-13.55 109.88,-13.55zm97.71 299.91l-72.85 2.4c-59.64,2.06 -101.71,12.01 -125.71,30.02 -24.16,17.85 -36.15,42.55 -36.15,73.78 0,27.28 8.17,47.18 24.86,59.71 16.69,12.35 38.59,18.7 65.72,18.7 41.37,0 75.8,-11.67 103.1,-34.83 27.47,-22.99 41.03,-57.13 41.03,-101.91l0 -47.87z"/>
   <path class="fil3" d="M8317.36 8347.75c0,35.52 -12.05,63.13 -36.15,82.87 -24,19.65 -63.3,29.69 -117.71,29.69 -12.86,0 -24.71,-0.97 -35.64,-2.58 -10.73,-1.58 -20.16,-3.43 -27.99,-5.49l0 -68.8c8.17,1.89 18.46,3.81 30.59,5.49 12.14,1.68 23.48,2.57 33.57,2.57 17.73,0 31.81,-3.15 42.07,-9.09 10.37,-6 15.65,-16.3 15.65,-30.54 0,-15.44 -7.69,-27.66 -22.96,-36.72 -15.26,-9.06 -37.9,-15.44 -67.8,-19.04l42.77 -82.87 77.37 0 -20.86 43.24c15.64,3.94 30.07,9.78 43.11,17.5 13.04,7.72 23.72,17.68 31.81,29.85 8.18,12.29 12.17,26.94 12.17,43.92z"/>
   <path class="fil3" d="M8219.66 8223.53c-53.37,0 -99.45,-10.23 -138.56,-30.54 -39.06,-20.28 -69.13,-51.47 -90.24,-93.5 -21.07,-41.97 -31.47,-95.4 -31.47,-160.08 0,-67.43 11.51,-122.54 34.6,-165.23 23.08,-42.69 55.16,-74.29 95.97,-94.53 41.01,-20.35 87.97,-30.54 140.82,-30.54 33.74,0 64.16,3.26 91.46,9.78 27.3,6.52 50.59,14.58 69.54,23.85l-35.64 94.53c-20.69,-8.4 -41.93,-15.48 -63.63,-21.1 -21.7,-5.63 -42.6,-8.58 -62.77,-8.58 -32.86,0 -60.39,7.19 -82.23,21.45 -21.91,14.32 -38.11,35.72 -48.85,63.99 -10.75,28.28 -16,63.31 -16,105.35 0,40.49 5.32,74.89 16.17,102.6 10.81,27.63 27.2,48.7 48.51,62.8 21.39,14.14 47.63,21.27 78.92,21.27 30.95,0 58.64,-3.78 83.11,-11.15 24.31,-7.32 47.46,-16.82 69.2,-28.65l0 102.6c-21.39,12.01 -44.37,21.11 -68.85,26.93 -24.31,5.78 -54.42,8.75 -90.06,8.75z"/>
   <path class="fil3" d="M7586.02 7649.11c50.24,0 93.37,10.24 129.35,30.54 35.89,20.26 63.81,49.14 83.1,86.47 19.21,37.2 29.03,82.11 29.03,134l0 62.97 -376.4 0c1.39,53.7 16.04,95.1 43.98,124.04 27.95,28.95 67.29,43.41 118.05,43.41 36,0 68.38,-3.48 97.02,-10.29 28.64,-6.82 58.25,-16.99 88.84,-30.37l0 95.91c-28.16,13.04 -56.9,22.7 -86.05,28.65 -29.17,5.96 -64.17,9.09 -105.01,9.09 -55.3,0 -104.06,-10.62 -145.87,-31.74 -41.88,-21.16 -74.89,-52.85 -98.42,-94.88 -23.49,-41.94 -35.28,-94.19 -35.28,-156.64 0,-61.94 10.65,-114.66 31.98,-158.02 21.34,-43.36 51.49,-76.46 90.24,-99.17 38.69,-22.66 83.8,-33.97 135.44,-33.97zm0 89.04c-37.73,0 -68.26,11.84 -91.46,35.69 -23.12,23.75 -36.85,58.85 -41.03,104.83l256.79 0c-0.34,-27.45 -5.13,-51.84 -14.08,-73.09 -8.87,-21.03 -22.54,-37.7 -40.68,-49.58 -18.1,-11.87 -41.38,-17.85 -69.54,-17.85z"/>
   <path class="fil3" d="M6985.41 7649.11c72.51,0 130.7,24.11 174.59,72.06 43.96,48.03 66.1,119.41 66.1,214.12 0,62.8 -10.41,115.52 -30.69,158.36 -20.29,42.85 -48.97,75.32 -85.51,97.11 -36.54,21.79 -79.1,32.77 -127.69,32.77 -30.89,0 -57.83,-3.61 -80.61,-10.98 -22.78,-7.37 -42.47,-17.16 -58.57,-28.99 -15.99,-11.75 -29.76,-24.88 -40.69,-38.95l-7.72 0c1.69,13.38 3.54,28.19 5.09,44.44 1.53,16.08 2.63,30.98 2.63,44.26l0 225.97 -130.33 0 0 -799.88 106.04 0 18.08 77.21 6.21 0c11.31,-15.79 25.24,-30.37 41.63,-43.75 16.39,-13.38 36.17,-24.02 59.51,-31.91 23.35,-7.89 50.67,-11.84 81.93,-11.84zm-34.65 96.42c-35.8,0 -64.44,6.63 -85.89,19.39 -21.37,12.71 -37.13,31.96 -46.9,57.65 -9.72,25.51 -15.63,57.74 -15.63,96.25l0 16.47c0,40.91 4.68,75.74 13.94,104.15 9.28,28.45 25.08,50.19 46.89,64.85 21.96,14.75 51.61,22.31 89.09,22.31 31.64,0 58.06,-7.95 78.72,-23.51 20.67,-15.56 36.5,-37.94 46.71,-66.91 10.21,-28.92 15.44,-63.14 15.44,-102.43 0,-59.54 -11.67,-105.78 -35.02,-138.63 -23.43,-32.94 -59.14,-49.59 -107.35,-49.59z"/>
   <path class="fil3" d="M6583.19 8055.39c0,36.38 -9.05,67.19 -26.95,92.14 -17.97,25.03 -44.39,43.98 -78.75,56.79 -34.37,12.81 -76.68,19.21 -126.58,19.21 -39.47,0 -73.27,-2.7 -101.71,-8.23 -28.29,-5.5 -54.94,-14.07 -80.14,-25.39l0 -102.09c26.77,12.35 57.1,23.14 90.4,32.08 33.35,8.96 65.19,13.73 94.93,13.73 39.47,0 67.94,-6.14 85.19,-18.19 17.22,-12.02 25.91,-28.31 25.91,-48.55 0,-12.01 -3.54,-22.88 -10.44,-32.26 -6.89,-9.37 -19.89,-19.42 -38.77,-29.51 -18.74,-10.03 -46.5,-22.49 -82.76,-36.72 -35.6,-13.96 -65.78,-28.17 -90.05,-42.03 -24.47,-13.99 -43.1,-31.07 -55.63,-50.79 -12.56,-19.79 -18.78,-45.29 -18.78,-76.35 0,-49.07 19.85,-86.4 59.28,-111.86 39.55,-25.55 91.98,-38.26 157.18,-38.26 34.59,0 67.33,3.49 98.05,10.29 30.71,6.8 60.85,16.82 90.4,29.86l-37.72 89.04c-25.39,-11.15 -51,-20.28 -76.67,-27.45 -25.51,-7.13 -51.64,-10.81 -78.07,-10.81 -30.94,0 -54.43,4.76 -70.59,14.07 -16.07,9.27 -24.16,22.48 -24.16,39.8 0,13.04 3.93,24.06 11.65,32.95 7.8,9 21.47,18 40.5,26.93 19.1,8.97 45.94,20.39 80.33,33.46 33.46,12.72 62.65,25.97 87.28,39.81 24.62,13.83 43.58,30.73 56.84,50.78 13.22,19.98 19.83,45.81 19.83,77.55z"/>
   <path class="fil3" d="M5855.41 7649.11c63.46,0 113.08,16.11 148.48,48.21 35.47,32.18 53.2,83.96 53.2,154.76l0 361.16 -119.78 0 0 -338.69c0,-43.06 -8.91,-75.16 -26.96,-96.76 -17.88,-21.41 -45.89,-32.26 -83.45,-32.26 -54.77,0 -92.66,16.66 -113.87,49.59 -21.21,32.93 -31.82,80.87 -31.82,143.26l0 274.86 -119.8 0 0 -553.84 93.2 0 16.86 75.67 6.61 0c12.17,-19.39 27.47,-35.59 45.55,-48.05 18.2,-12.53 38.62,-21.99 61.2,-28.31 22.57,-6.31 46.07,-9.6 70.58,-9.6z"/>
   <polygon class="fil3" points="5295.43,8213.24 5295.43,7458.22 5417.64,7458.22 5417.64,8213.24 "/>
   <polygon class="fil3" points="13381.76,8213.24 13263.66,8213.24 13263.66,7410.87 13381.76,7410.87 "/>
   <path class="fil3" d="M12906.86 7649.11c69.97,0 122.88,15.44 158.71,46.49 35.83,31.05 53.75,79.47 53.75,144.98l0 372.66 -83.45 0 -22.52 -78.75 -4.1 0c-15.7,20.24 -31.8,36.67 -48.47,49.75 -16.75,13.15 -35.85,23 -57.68,29.51 -21.83,6.5 -48.47,9.78 -79.87,9.78 -32.93,0 -62.47,-6.18 -88.39,-18.35 -25.93,-12.17 -46.54,-30.77 -61.44,-55.77 -14.94,-25.06 -22.52,-56.79 -22.52,-95.05 0,-57.13 21.21,-99.98 63.65,-128.68 42.51,-28.75 106.83,-44.6 192.84,-47.69l95.9 -3.44 0 -28.82c0,-38.26 -8.95,-65.46 -26.78,-81.67 -17.83,-16.21 -42.84,-24.53 -75.27,-24.53 -27.64,0 -54.44,4.15 -80.37,12.18 -26.09,8.07 -51.37,17.84 -75.95,29.68l-38.05 -83.56c26.96,-14.41 57.69,-26.12 92.15,-35.17 34.63,-9.1 70.48,-13.55 107.86,-13.55zm95.91 299.91l-71.51 2.4c-58.5,1.95 -99.77,12.12 -123.38,30.02 -23.64,17.93 -35.49,42.55 -35.49,73.78 0,27.28 7.98,47.25 24.4,59.71 16.32,12.39 37.88,18.7 64.51,18.7 40.61,0 74.33,-11.78 101.19,-34.83 26.87,-23.07 40.28,-57.13 40.28,-101.91l0 -47.87z"/>
   <path class="fil3" d="M12473.84 7446.31c17.92,0 33.64,4.82 46.76,14.58 13.13,9.76 19.63,26.42 19.63,50.27 0,23.51 -6.47,40.22 -19.63,50.1 -13.09,9.81 -28.84,14.76 -46.76,14.76 -18.77,0 -34.53,-4.95 -47.27,-14.76 -12.82,-9.88 -19.28,-26.59 -19.28,-50.1 0,-23.85 6.48,-40.49 19.28,-50.27 12.8,-9.78 28.5,-14.58 47.27,-14.58z"/>
   <polygon class="fil3" points="12531.87,7659.4 12531.87,8213.24 12414.28,8213.24 12414.28,7659.4 "/>
   <path class="fil3" d="M11961.39 8223.53c-71.05,0 -127.94,-24.1 -170.74,-72.23 -42.87,-48.23 -64.26,-119.41 -64.26,-213.44 0,-95.05 21.75,-166.92 65.36,-215.66 43.54,-48.65 100.97,-73.09 172.4,-73.09 30.11,0 56.44,3.83 78.95,11.32 22.51,7.49 62.01,17.67 78.35,30.37 16.34,12.7 30.3,26.94 41.68,42.72l5.86 0c-1.65,-10.47 -3.73,-25.64 -6.04,-45.47 -2.3,-19.65 -3.49,-38.09 -3.49,-55.07l0 -222.11 126.87 0 0 802.37 -108.98 0 -2.58 -75.66 -15.31 0c-10.84,16.12 -24.5,30.59 -40.58,43.4 -16.29,12.97 -55.84,23.4 -78.17,31.06 -22.33,7.66 -48.84,11.49 -79.32,11.49zm35.43 -96.08c54.17,0 112.34,-14.5 134.54,-43.4 22.11,-28.8 34.52,-72.41 34.52,-130.23l0 -15.44c0,-61.94 -10.89,-109.52 -32.31,-142.58 -21.41,-33.05 -80.75,-49.75 -137.66,-49.75 -45.72,0 -80.26,17.18 -104.1,51.3 -23.83,34.11 -35.8,81.49 -35.8,142.4 0,60.91 11.92,107.46 35.8,139.66 23.79,32.08 58.76,48.04 105.01,48.04z"/>
   <path class="fil3" d="M11367.42 7649.11c49.32,0 91.64,10.12 126.97,30.54 35.32,20.24 62.62,49.07 81.57,86.47 18.94,37.23 28.5,82.01 28.5,134l0 62.97 -369.46 0c1.36,53.7 15.69,95.05 43.16,124.04 27.49,29 66.05,43.41 115.88,43.41 35.33,0 67.07,-3.43 95.23,-10.29 28.16,-6.87 57.17,-16.99 87.2,-30.37l0 95.91c-27.64,13.04 -55.8,22.65 -84.47,28.65 -28.67,6.01 -62.98,9.09 -103.07,9.09 -54.28,0 -102.06,-10.63 -143.18,-31.74 -41.13,-21.27 -73.39,-52.84 -96.6,-94.88 -23.04,-42.03 -34.63,-94.19 -34.63,-156.64 0,-61.94 10.4,-114.61 31.39,-158.02 20.99,-43.41 50.51,-76.35 88.57,-99.17 38.05,-22.65 82.26,-33.97 132.94,-33.97zm0 89.04c-37.03,0 -66.9,11.84 -89.76,35.69 -22.7,23.85 -36.18,58.85 -40.28,104.83l252.06 0c-0.34,-27.45 -4.95,-51.81 -13.83,-73.09 -8.7,-21.1 -22.01,-37.74 -39.92,-49.58 -17.76,-12.01 -40.63,-17.85 -68.27,-17.85z"/>
   <path class="fil3" d="M10985.5 7649.11c9.22,0 19.46,0.51 30.38,1.54 11.09,1.03 20.65,2.23 28.49,3.95l-10.92 110.66c-6.99,-2.06 -15.52,-3.6 -25.76,-4.63 -10.07,-0.86 -19.29,-1.37 -27.31,-1.37 -20.99,0 -40.95,3.43 -59.9,10.12 -18.94,6.86 -35.84,17.16 -50.51,31.05 -14.68,13.73 -26.12,31.06 -34.47,51.65 -8.37,20.59 -12.46,44.61 -12.46,71.89l0 289.27 -118.1 0 0 -553.84 91.99 0 16.04 98.31 5.46 0c11.09,-19.73 24.75,-37.91 40.96,-54.39 16.38,-16.3 35.15,-29.51 56.32,-39.46 21.15,-9.78 44.37,-14.75 69.79,-14.75z"/>
   <path class="fil3" d="M10318.61 7460.52c102.39,0 177.34,19.87 224.44,59.73 46.93,39.71 70.49,95.42 70.49,167.1 0,32.68 -5.17,63.63 -15.96,92.95 -10.71,29.17 -28.2,55.19 -52.48,77.67 -24.29,22.47 -56.22,40.24 -95.9,53.24 -39.68,12.98 -88.5,19.5 -146.35,19.5l-84.77 0 0 282.53 -130.38 0 0 -752.72 230.91 0zm-8.71 102.44l-91.82 0 0 264.79 71.04 0c41,0 75.91,-4.5 104.43,-13.53 28.59,-9.05 50.35,-23.69 65.29,-43.58 14.89,-19.79 22.26,-46.04 22.26,-78.54 0,-43.58 -13.95,-76.05 -41.73,-97.34 -27.67,-21.21 -70.88,-31.8 -129.47,-31.8z"/>
   <path class="fil3" d="M3970.93 8223.53c-71.05,0 -127.94,-24.1 -170.74,-72.23 -42.87,-48.23 -64.26,-119.41 -64.26,-213.44 0,-95.05 21.75,-166.92 65.36,-215.66 43.54,-48.65 100.97,-73.09 172.4,-73.09 30.11,0 56.44,3.83 78.95,11.32 22.51,7.49 62.01,17.67 78.35,30.37 16.34,12.7 30.3,26.94 41.68,42.72l5.86 0c-1.65,-10.47 -3.73,-25.64 -6.04,-45.47 -2.3,-19.65 -3.49,-38.09 -3.49,-55.07l0 -222.11 126.87 0 0 802.37 -108.98 0 -2.58 -75.66 -15.31 0c-10.84,16.12 -24.5,30.59 -40.58,43.4 -16.29,12.97 -55.84,23.4 -78.17,31.06 -22.33,7.66 -48.84,11.49 -79.32,11.49zm35.43 -96.08c54.17,0 112.34,-14.5 134.54,-43.4 22.11,-28.8 34.52,-72.41 34.52,-130.23l0 -15.44c0,-61.94 -10.89,-109.52 -32.31,-142.58 -21.41,-33.05 -80.75,-49.75 -137.66,-49.75 -45.72,0 -80.26,17.18 -104.1,51.3 -23.83,34.11 -35.8,81.49 -35.8,142.4 0,60.91 11.92,107.46 35.8,139.66 23.79,32.08 58.76,48.04 105.01,48.04z"/>
  </g>
 </g>
</svg>
